# xmcd CD database file
# Copyright (C) 1996 Ti Kan
#
# Track frame offsets:
# 	150
# 	20440
# 	36963
# 	56658
# 	72528
# 	83583
# 	92288
# 	106643
#
# Disc length: 1591 seconds
#
# Revision: 1
# Processed by: cddbd v1.4b41PL1 Copyright (c) Steve Scherf et al.
# Submitted via: DiscPlay 3.3
#
DISCID=58063508
DTITLE=Billie Holiday - God Bless The Child
DYEAR=1900
DGENRE=
TTITLE0=(I Don't Stand) A Ghost Of A Chance (With You)
TTITLE1=I Cover The Waterfront
TTITLE2=Please Don't Talk About Me (When I'm Gone)
TTITLE3=Don't Explain
TTITLE4=Now Or Never
TTITLE5=Miss Brown To You
TTITLE6=He's Funny That Way
TTITLE7=God Bless The Child
EXTD=
EXTT0=
EXTT1=
EXTT2=
EXTT3=
EXTT4=
EXTT5=
EXTT6=
EXTT7=
PLAYORDER=
